<svg xmlns="http://www.w3.org/2000/svg" height="48" viewBox="0 -960 960 960" width="48"><path d="M570.805-132.152v-66.963q93.935-27.95 154.217-105.418Q785.305-382 785.305-481q0-98.5-59.783-176.467-59.782-77.968-154.717-105.418v-66.963q122.89 28.423 200.554 126.005T849.023-481q0 125.761-77.664 223.343T570.805-132.152ZM110.977-348.869v-262.827h165.979L493.305-827.48v694.96L276.956-348.869H110.977Zm439.828 39.956v-342.674q56.696 18.696 91.957 65.305 35.261 46.61 35.261 106.32 0 59.223-35.761 106.071t-91.457 64.978Z"/></svg>