<svg xmlns="http://www.w3.org/2000/svg" height="48" viewBox="0 -960 960 960" width="48"><path d="M814.022-47.934 679.891-182.63q-25.304 17.304-54.575 30.424-29.272 13.119-61.076 20.054V-199q17.543-5.37 35.717-11.956 18.173-6.587 33.847-18.892L486.74-379.043v246.523L270.956-348.869H104.977v-262.827h152.066l-216.674-219.5 45.457-45.457L860.044-94.956l-46.022 47.022Zm-28.76-238.544L739.24-333.63q20-32.435 29.75-69.903Q778.74-441 778.74-481q0-100.5-59.316-179.967Q660.109-740.435 564.24-763v-66.848q122.261 28.565 200.522 126.076T843.023-481q0 52.196-14.848 101.576-14.848 49.381-42.913 92.946ZM658.327-414.543l-94.087-95.218v-134.826q48.195 22.63 77.989 67.011 29.794 44.38 29.794 97.576 0 17.13-3.566 33.761-3.565 16.63-10.13 31.696ZM486.74-588.391 368.043-708.784 486.74-827.48v239.089Z"/></svg>