<svg xmlns="http://www.w3.org/2000/svg" height="48" viewBox="0 -960 960 960" width="48"><path d="M725.349-71.5q-51.436 0-88.143-36.909-36.707-36.91-36.707-88.024 0-6.87 1.5-17.1t4.5-19.082L324.913-396.391q-16.483 19.196-40.183 30.294-23.699 11.098-48.439 11.098-52.06 0-88.676-36.734t-36.616-88.565q0-51.414 36.699-88.058 36.699-36.645 88.49-36.645 25.028 0 47.779 9.598 22.751 9.598 40.946 28.294l281.586-161.703q-3-7.621-4.5-17.301-1.5-9.681-1.5-18.105 0-51.155 36.858-87.969 36.858-36.814 88.294-36.814t88.143 36.678q36.707 36.677 36.707 88.092 0 51.83-36.699 88.531-36.699 36.701-88.74 36.701-25.32 0-48.093-7.515-22.773-7.515-38.817-26.746L356.001-518.761q2.565 8.351 3.784 20.086 1.219 11.736 1.219 18.933 0 7.196-1.219 15.513t-3.784 17.431L638.152-288.24q15.832-16.231 37.575-24.746 21.742-8.515 49.482-8.515 52.06 0 88.676 36.657t36.616 88.377q0 51.721-36.858 88.344-36.858 36.624-88.294 36.624Z"/></svg>